<svg width="16" height="16" viewBox="0 0 16 16" fill="none" xmlns="http://www.w3.org/2000/svg"><path d="M15.857 11.42c-.043-.068-.309-.62-1.589-1.757-1.34-1.189-1.16-.996.454-3.052.983-1.253 1.376-2.017 1.253-2.344-.117-.312-.84-.23-.84-.23l-2.404.014s-.178-.023-.31.052a.652.652 0 0 0-.213.247s-.38.97-.889 1.793c-1.071 1.74-1.5 1.831-1.675 1.723-.407-.251-.305-1.011-.305-1.55 0-1.686.267-2.389-.521-2.57-.262-.06-.454-.1-1.123-.108-.858-.008-1.585.003-1.996.196-.274.128-.485.413-.356.43.159.02.519.092.71.341.247.32.238 1.041.238 1.041s.142 1.984-.331 2.23c-.325.17-.77-.175-1.725-1.754-.49-.808-.86-1.701-.86-1.701s-.07-.167-.198-.256c-.154-.108-.37-.142-.37-.142l-2.286.013s-.343.01-.469.152c-.112.127-.009.39-.009.39s1.79 4.002 3.817 6.02c1.859 1.85 3.969 1.729 3.969 1.729h.956s.289-.03.436-.183c.136-.14.13-.401.13-.401s-.018-1.227.578-1.408c.587-.177 1.341 1.186 2.14 1.71.604.398 1.063.31 1.063.31l2.137-.028s1.118-.066.588-.906Z" fill="#316DC2"/></svg>
