<svg width="16" height="16" viewBox="0 0 16 16" fill="none" xmlns="http://www.w3.org/2000/svg"><path d="M8 2.42c.962 0 1.744.767 1.744 1.71 0 .94-.782 1.708-1.744 1.708S6.255 5.07 6.255 4.13c0-.943.783-1.71 1.745-1.71Zm0 5.838c2.324 0 4.213-1.852 4.213-4.127C12.213 1.851 10.323 0 8 0 5.676 0 3.789 1.852 3.789 4.13c0 2.276 1.887 4.128 4.21 4.128Zm1.704 3.37a8.03 8.03 0 0 0 2.446-.995c.576-.355.75-1.102.388-1.667a1.247 1.247 0 0 0-1.704-.381 5.444 5.444 0 0 1-5.671 0 1.244 1.244 0 0 0-1.701.38 1.196 1.196 0 0 0 .388 1.668 8.03 8.03 0 0 0 2.446.994L3.94 13.934a1.194 1.194 0 0 0 0 1.71 1.249 1.249 0 0 0 1.747 0L8 13.377l2.315 2.267c.481.475 1.26.475 1.745 0a1.194 1.194 0 0 0 0-1.71l-2.356-2.307Z" fill="#316DC2"/></svg>
