<svg width="32" height="32" viewBox="0 0 32 32" fill="none" xmlns="http://www.w3.org/2000/svg">
<rect width="32" height="32" rx="16" fill="white"/>
<path d="M8.02044 12.487C7.53782 12.8308 7.25494 13.5589 7.78817 14.4294C8.32139 15.2999 15.9394 21.1757 16.2187 21.3389C16.498 21.5022 16.7775 21.5293 17.4883 20.9581C18.1994 20.3867 24.1403 15.9238 24.2936 15.7896C24.5376 15.576 24.5983 15.0551 24.2936 14.8102C24.2936 14.8102 17.0963 20.1963 16.8606 20.414C16.6251 20.6317 16.2585 20.2781 16.3273 19.8156C16.3965 19.3531 16.4473 19.2986 17.3615 18.5914C18.2756 17.8841 23.4586 13.9559 23.6937 13.7823C23.96 13.5855 23.9664 13.238 23.5303 12.9306C22.9238 12.5033 16.3705 7.84268 16.1513 7.67953C15.9314 7.51624 15.6272 7.36789 15.1702 7.69433C14.7132 8.02076 8.9071 11.8553 8.02044 12.487Z" fill="#316DC2"/>
<path d="M16.2187 21.9122C16.0354 21.805 12.6929 19.2387 10.2651 17.2406V21.4068C10.2632 24.448 18.8316 26.0729 21.6702 22.3343V18.3524C19.9264 19.6699 17.8866 21.2113 17.4883 21.5313C16.7775 22.1025 16.498 22.0754 16.2187 21.9122Z" fill="#316DC2"/>
<path d="M19.8445 17.344C19.8445 17.344 21.1185 17.9845 21.2092 20.562L20.5919 20.3918L20.0981 21.4408C19.8892 18.6184 18.7516 18.2091 18.7516 18.2091L19.8445 17.344Z" fill="#98B8E6"/>
</svg>
